<?xml version="1.0" encoding="UTF-8"?>
<svg id="Layer_1" data-name="Layer 1" xmlns="http://www.w3.org/2000/svg" viewBox="0 0 800 300">
  <defs>
    <style>
      .cls-1 {
        fill: #356273;
      }

      .cls-2 {
        fill: #eba5a5;
      }

      .cls-3 {
        fill: #fff;
      }
    </style>
  </defs>
  <g>
    <path class="cls-1" d="M272.82,158.45v-6.19h.64c3.34,0,5.88-1.14,7.64-3.41,1.76-2.28,2.64-6.48,2.64-12.6v-37.22c0-2.61-.71-4.26-2.14-4.96-1.43-.7-3.11-1.05-5.05-1.05h-.27v-5.19h23.39v49.51c0,5.46-1.06,9.72-3.18,12.79-2.12,3.06-5.07,5.22-8.83,6.46-3.76,1.24-8.07,1.87-12.92,1.87h-1.91ZM291.38,80.01c-2.49,0-4.58-.58-6.28-1.73-1.7-1.15-2.55-2.88-2.55-5.19,0-2.43.85-4.19,2.55-5.28,1.7-1.09,3.79-1.64,6.28-1.64s4.43.55,6.19,1.64c1.76,1.09,2.64,2.85,2.64,5.28s-.88,4.04-2.64,5.19c-1.76,1.15-3.82,1.73-6.19,1.73Z"/>
    <path class="cls-1" d="M330.52,137.52c-5.16,0-8.96-1.49-11.42-4.46-2.46-2.97-3.69-7.52-3.69-13.65v-19.84c0-2.61-.35-4.35-1.05-5.23-.7-.88-2.2-1.32-4.5-1.32h-.27v-5.19h21.84v28.21c0,3.88.41,7.02,1.23,9.42.82,2.4,2.35,3.59,4.6,3.59,2.49,0,4.28-1.21,5.37-3.64,1.09-2.43,1.64-5.7,1.64-9.83v-17.02c0-2.55-.53-4.11-1.59-4.69-1.06-.58-2.41-.86-4.05-.86h-.36v-5.19h21.93v37.95c0,2.61.5,4.2,1.5,4.78,1,.58,2.35.86,4.05.86h5.35v5.19h-24l-2.37-6.1h-.46c-1.58,2.55-3.49,4.35-5.73,5.41-2.25,1.06-4.91,1.59-8.01,1.59Z"/>
    <path class="cls-1" d="M370.56,136.61v-5.19h.27c2.06,0,3.69-.36,4.87-1.09s1.77-2.43,1.77-5.1v-26.39c0-2.49-.53-4.08-1.59-4.78-1.06-.7-2.59-1.05-4.6-1.05h-.27v-5.19h20.84l1.18,6.1h.46c1.46-2.55,3.26-4.41,5.41-5.6,2.15-1.18,4.96-1.77,8.42-1.77,4.79,0,8.48,1.38,11.06,4.14,2.58,2.76,3.87,7.21,3.87,13.33v20.93c0,2.79.42,4.57,1.27,5.32.85.76,2.3,1.14,4.37,1.14h.36v5.19h-21.93v-29.3c0-3.88-.42-6.9-1.27-9.06-.85-2.15-2.43-3.23-4.73-3.23-1.76,0-3.14.65-4.14,1.96-1,1.31-1.71,3-2.14,5.1-.42,2.09-.64,4.35-.64,6.78v16.65c0,2.49.53,4.1,1.59,4.82,1.06.73,2.59,1.09,4.6,1.09h.27v5.19h-29.3Z"/>
    <path class="cls-1" d="M456.76,137.52c-7.52,0-13.47-2.12-17.84-6.37-4.37-4.25-6.55-10.65-6.55-19.2s2.09-14.93,6.28-19.11c4.19-4.19,10.31-6.28,18.38-6.28,7.58,0,13.56,2.09,17.93,6.28,4.37,4.19,6.55,10.56,6.55,19.11s-2.09,14.96-6.28,19.2c-4.19,4.25-10.34,6.37-18.47,6.37ZM456.94,131.43c3.09,0,5.26-1.65,6.51-4.96,1.24-3.31,1.87-8.15,1.87-14.52s-.64-11.16-1.91-14.38c-1.27-3.22-3.46-4.82-6.55-4.82s-5.25,1.61-6.46,4.82c-1.21,3.22-1.82,8.01-1.82,14.38s.62,11.21,1.87,14.52c1.24,3.31,3.41,4.96,6.51,4.96Z"/>
  </g>
  <g>
    <path class="cls-1" d="M276.46,227.92v-5.19h.27c2.06,0,3.69-.36,4.87-1.09s1.77-2.43,1.77-5.1v-26.76c0-2.49-.56-4.08-1.68-4.78-1.12-.7-2.68-1.05-4.69-1.05h-.27v-4.82h21.02l1.18,6.1h.46c1.46-2.61,3.31-4.49,5.55-5.64,2.24-1.15,5.22-1.73,8.92-1.73,3.4,0,6.23.59,8.51,1.77,2.28,1.18,3.93,3.05,4.96,5.6h.64c1.4-2.61,3.29-4.49,5.69-5.64,2.4-1.15,5.32-1.73,8.78-1.73,4.85,0,8.63,1.38,11.33,4.14,2.7,2.76,4.05,7.21,4.05,13.33v20.93c0,2.79.44,4.57,1.32,5.32.88.76,2.35,1.14,4.41,1.14h5.8v5.19h-27.46v-29.3c0-3.88-.47-6.9-1.41-9.06-.94-2.15-2.59-3.23-4.96-3.23-1.7,0-3.05.59-4.05,1.77-1,1.18-1.74,2.75-2.23,4.69-.49,1.94-.73,4.07-.73,6.37v17.11c0,2.79.42,4.57,1.27,5.32.85.76,2.3,1.14,4.37,1.14h.36v5.19h-21.93v-29.3c0-3.88-.45-6.9-1.37-9.06-.91-2.15-2.55-3.23-4.91-3.23-1.76,0-3.14.65-4.14,1.96-1,1.31-1.73,3-2.18,5.1-.46,2.09-.68,4.35-.68,6.78v16.65c0,2.49.53,4.1,1.59,4.82,1.06.73,2.59,1.09,4.6,1.09h.27v5.19h-29.3Z"/>
    <path class="cls-1" d="M367.38,227.92v-5.19h1.09c1.58,0,2.99-.42,4.23-1.27,1.24-.85,1.87-2.55,1.87-5.1v-26.21c0-2.31-.64-3.85-1.91-4.64-1.27-.79-2.67-1.18-4.19-1.18h-1.46v-5.19h23.48v37.4c0,2.49.62,4.14,1.87,4.96,1.24.82,2.62,1.23,4.14,1.23h1.09v5.19h-30.21ZM382.03,171.31c-2.49,0-4.57-.58-6.23-1.73-1.67-1.15-2.5-2.88-2.5-5.19,0-2.43.83-4.19,2.5-5.28,1.67-1.09,3.75-1.64,6.23-1.64s4.44.55,6.23,1.64c1.79,1.09,2.68,2.85,2.68,5.28s-.9,4.04-2.68,5.19c-1.79,1.15-3.87,1.73-6.23,1.73Z"/>
    <path class="cls-1" d="M421.71,228.83c-5.95,0-10.53-2.02-13.74-6.05-3.22-4.03-4.82-10.42-4.82-19.16s1.61-15.27,4.82-19.43c3.21-4.15,7.74-6.23,13.56-6.23,3.4,0,6.11.64,8.14,1.91,2.03,1.27,3.69,2.85,4.96,4.73h.55c-.12-1.52-.23-3.26-.32-5.23-.09-1.97-.14-3.78-.14-5.42v-4.55c0-2.43-.71-3.94-2.14-4.55-1.43-.61-3.14-.91-5.14-.91h-.73v-5.19h24.03v56.97c0,2.79.64,4.66,1.91,5.6,1.27.94,2.97,1.41,5.1,1.41h.55v5.19h-18.93l-2.91-6.64h-.64c-1.4,2.31-3.22,4.14-5.46,5.51-2.25,1.37-5.13,2.05-8.65,2.05ZM426.62,221.64c3.15,0,5.29-1.5,6.42-4.5,1.12-3,1.68-7.6,1.68-13.79s-.56-10.4-1.68-13.56c-1.12-3.15-3.26-4.73-6.42-4.73-2.67,0-4.57,1.59-5.69,4.78-1.12,3.19-1.68,7.72-1.68,13.61s.56,10.69,1.68,13.7c1.12,3,3.02,4.5,5.69,4.5Z"/>
    <path class="cls-1" d="M477.49,227.92l-11.56-38.77c-.67-1.94-1.46-3.23-2.37-3.87-.91-.64-2.25-.96-4.01-.96h-.36v-5.19h28.58v5.19h-1.18c-1.82,0-3.18.26-4.1.77-.91.52-1.37,1.53-1.37,3.05,0,.49.08,1.11.23,1.87.15.76.32,1.47.5,2.14l2.73,10.37c.55,2.18,1.06,4.32,1.55,6.42.48,2.09.82,3.84,1,5.23h.36c.24-1.46.58-2.94,1-4.46.42-1.52.94-3.09,1.55-4.73l9.28-25.3h5.92l8.74,26.85c.55,1.52.96,2.94,1.23,4.28.27,1.34.47,2.49.59,3.46h.27c.24-1.46.52-2.76.82-3.91.3-1.15.73-2.58,1.27-4.28l3.73-12.74c.24-.79.44-1.62.59-2.5.15-.88.23-1.56.23-2.05,0-2.97-2-4.46-6.01-4.46h-.64v-5.19h21.39v5.19h-1.18c-1.76,0-3.09.45-4,1.37-.91.91-1.85,2.82-2.82,5.73l-11.74,36.49h-10.83l-8.92-27.03-9.46,27.03h-11.01Z"/>
    <path class="cls-1" d="M538.65,227.92v-5.19h1.09c1.58,0,2.99-.42,4.23-1.27,1.24-.85,1.87-2.55,1.87-5.1v-26.21c0-2.31-.64-3.85-1.91-4.64-1.27-.79-2.67-1.18-4.19-1.18h-2.46v-5.19h24.49v37.4c0,2.49.62,4.14,1.87,4.96,1.24.82,2.62,1.23,4.14,1.23h1.09v5.19h-30.21ZM553.3,171.31c-2.49,0-4.57-.58-6.23-1.73-1.67-1.15-2.5-2.88-2.5-5.19,0-2.43.83-4.19,2.5-5.28,1.67-1.09,3.75-1.64,6.23-1.64s4.44.55,6.23,1.64c1.79,1.09,2.69,2.85,2.69,5.28s-.9,4.04-2.69,5.19c-1.79,1.15-3.87,1.73-6.23,1.73Z"/>
    <path class="cls-1" d="M592.53,227.92l-14.56-39.41c-.67-1.64-1.49-2.74-2.46-3.32-.97-.58-2.49-.86-4.55-.86v-5.19h29.85v5.19h-3.46c-2.25,0-3.37.91-3.37,2.73,0,.73.09,1.43.27,2.09.18.67.36,1.27.55,1.82l6.01,17.2c.61,1.76,1.15,3.46,1.64,5.1.48,1.64.85,3.19,1.09,4.64.24-1.27.56-2.62.96-4.05.39-1.42.74-2.62,1.05-3.59l6.01-18.57c.24-.85.47-1.65.68-2.41.21-.76.32-1.56.32-2.41,0-1.7-1.24-2.55-3.73-2.55h-2.18v-5.19h20.2v5.19h-2.09c-1.15,0-2.14.41-2.96,1.23s-1.68,2.56-2.59,5.23l-12.65,37.13h-14.01Z"/>
    <path class="cls-1" d="M655.32,228.83c-8.25,0-14.41-2.2-18.47-6.6-4.07-4.4-6.1-10.57-6.1-18.52,0-8.55,2.05-15,6.14-19.34,4.1-4.34,9.87-6.51,17.34-6.51,6.92,0,12.36,1.85,16.34,5.55,3.97,3.7,5.96,9.16,5.96,16.38v4.91h-29.67c.12,5.89,1.21,10.16,3.28,12.83,2.06,2.67,5,4,8.83,4,3.15,0,5.73-.76,7.74-2.28,2-1.52,3.49-3.4,4.46-5.64,2.18.79,3.28,2.31,3.28,4.55,0,1.76-.65,3.46-1.96,5.1-1.31,1.64-3.37,2.97-6.19,4-2.82,1.03-6.48,1.55-10.97,1.55ZM647.04,198.52h13.65c0-4.61-.49-8.16-1.46-10.65-.97-2.49-2.52-3.73-4.64-3.73-2.25,0-4.05,1.23-5.41,3.69-1.37,2.46-2.08,6.02-2.14,10.69Z"/>
    <path class="cls-1" d="M701.73,228.83c-4.79,0-8.59-.47-11.38-1.41-2.79-.94-4.79-2.23-6.01-3.87-1.21-1.64-1.82-3.46-1.82-5.46,0-1.82.45-3.25,1.37-4.28.91-1.03,2.06-1.76,3.46-2.18,1.4-.42,2.82-.64,4.28-.64,0,4,.96,6.98,2.87,8.92,1.91,1.94,4.35,2.91,7.33,2.91s5.13-.55,6.46-1.64c1.33-1.09,2-2.4,2-3.91,0-1.88-.85-3.4-2.55-4.55-1.7-1.15-4.55-2.33-8.55-3.55-5.22-1.64-9.18-3.62-11.88-5.96-2.7-2.33-4.05-5.72-4.05-10.15,0-5.16,1.88-8.96,5.64-11.42s8.74-3.69,14.93-3.69c4.01,0,7.22.43,9.65,1.27,2.43.85,4.2,1.94,5.32,3.28,1.12,1.34,1.68,2.7,1.68,4.1,0,2.12-.76,3.73-2.27,4.82-1.52,1.09-3.97,1.64-7.37,1.64,0-2.97-.77-5.28-2.32-6.92-1.55-1.64-3.59-2.46-6.14-2.46-1.88,0-3.5.43-4.87,1.27-1.37.85-2.05,2.09-2.05,3.73,0,1.21.33,2.26,1,3.14.67.88,1.83,1.71,3.5,2.5,1.67.79,4.05,1.67,7.14,2.64,2.97.97,5.61,2.09,7.92,3.37,2.3,1.27,4.09,2.88,5.37,4.82,1.27,1.94,1.91,4.37,1.91,7.28,0,4.98-1.76,8.95-5.28,11.92-3.52,2.97-8.62,4.46-15.29,4.46Z"/>
  </g>
  <g>
    <circle class="cls-1" cx="153.94" cy="157.59" r="76.24"/>
    <g>
      <path class="cls-3" d="M135.79,127.43h0c6.43,0,11.64,5.22,11.64,11.64v18.1c0,12.85-10.44,23.29-23.29,23.29h0v-41.39c0-6.43,5.22-11.64,11.64-11.64Z"/>
      <rect class="cls-3" x="152.41" y="127.43" width="23.29" height="53.04" rx="11.64" ry="11.64" transform="translate(328.12 307.89) rotate(-180)"/>
      <rect class="cls-3" x="180.69" y="127.43" width="23.29" height="53.04" rx="11.64" ry="11.64" transform="translate(384.66 307.89) rotate(-180)"/>
      <circle class="cls-2" cx="108.28" cy="169.83" r="12"/>
    </g>
  </g>
</svg>